<svg xmlns="http://www.w3.org/2000/svg" width="128" height="126" viewBox="0 0 128 126" fill="none">
  <path d="M 102 0 C 116.359 0 128 11.641 128 26 L 128 119 C 128 121.209 126.209 123 124 123 L 108 123 C 105.791 123 104 121.209 104 119 L 104 26 C 104 24.895 103.105 24 102 24 C 100.895 24 100 24.895 100 26 L 100 90 C 100 109.882 83.882 126 64 126 C 44.118 126 28 109.882 28 90 L 28 81 C 28 79.895 27.105 79 26 79 C 24.895 79 24 79.895 24 81 L 24 119 C 24 121.209 22.209 123 20 123 L 4 123 C 1.791 123 0 121.209 0 119 L 0 6 C 0 3.791 1.791 2 4 2 L 20 2 C 22.209 2 24 3.791 24 6 L 24 37.51 C 26.339 35.536 28 32.732 28 28 L 28 6 C 28 3.791 29.791 2 32 2 L 48 2 C 50.209 2 52 3.791 52 6 L 52 28 C 52 40.482 46.738 49.588 39.71 55.643 C 38.817 56.486 39.03 57 40.5 57 L 50 57 C 51.105 57 52 57.895 52 59 L 52 90 C 52 96.627 57.373 102 64 102 C 70.627 102 76 96.627 76 90 L 76 26 C 76 11.641 87.641 0 102 0 Z M 64 26 C 68.418 26 72 29.582 72 34 C 72 38.418 68.418 42 64 42 C 59.582 42 56 38.418 56 34 C 56 29.582 59.582 26 64 26 Z" fill="currentColor" fill-rule="nonzero"></path>
</svg>
